<svg width="188" height="188" viewBox="0 0 188 188" fill="none" xmlns="http://www.w3.org/2000/svg">
<circle cx="94" cy="94" r="91.5" fill="url(#paint0_angular_0_1)" stroke="white" stroke-width="5"/>
<path d="M68.6253 128.577L46.0706 128.892C46.0953 128.56 46.1911 128.225 46.3691 127.903L69.8938 85.4114C70.7898 83.793 73.0988 83.7502 74.054 85.3343L83.7049 101.339L68.6253 128.577Z" fill="white"/>
<path d="M99.8655 128.14L68.6253 128.577L83.7049 101.339L99.8655 128.14Z" fill="white"/>
<path d="M62.9393 128.656L38.3455 129C37.5823 128.658 36.8274 128.281 36.0826 127.867C21.9463 120.022 16.8388 102.188 24.6747 88.0344C32.5106 73.8807 50.3226 68.767 64.459 76.6125C78.5953 84.458 83.7029 102.292 75.867 116.445C72.8076 121.971 68.2275 126.119 62.9393 128.656Z" fill="white"/>
<path d="M151.908 127.412L115.916 67.4385C125.973 62.7061 138.08 62.7126 148.542 68.5188C165.842 78.1203 172.093 99.9456 162.503 117.267C160.304 121.239 157.463 124.63 154.181 127.381L151.908 127.412Z" fill="white"/>
<path d="M79.0061 88.5512C76.4924 83.0828 72.279 78.3384 66.6172 75.1962C64.3334 73.9287 61.9537 72.9994 59.5355 72.3919C60.1122 70.5904 60.8725 68.8186 61.8234 67.1011C69.6593 52.9474 87.4713 47.8337 101.608 55.6792C115.744 63.5247 120.852 81.3585 113.016 95.5121C108.489 103.688 100.634 108.847 92.0812 110.235L85.8631 99.9229L79.0061 88.5512Z" fill="white"/>
<path d="M148.935 127.454L110.214 62.932L76.0358 83.4934C77.1986 85.0834 78.1916 86.7793 79.0061 88.5512L85.8631 99.9229L102.853 128.098L148.935 127.454Z" fill="white"/>
<defs>
<radialGradient id="paint0_angular_0_1" cx="0" cy="0" r="1" gradientUnits="userSpaceOnUse" gradientTransform="translate(94 94) rotate(90) scale(94)">
<stop offset="0.33" stop-color="#FF5E5E"/>
<stop offset="1" stop-color="#5A62FF"/>
</radialGradient>
</defs>
</svg>

