<svg width="120" height="120" viewBox="0 0 120 120" fill="none" xmlns="http://www.w3.org/2000/svg">
<circle cx="60" cy="60" r="57.5" fill="url(#paint0_angular_0_1)" stroke="white" stroke-width="5"/>
<path d="M43.6629 81.7306L29.1413 81.9313C29.1573 81.7202 29.2189 81.5065 29.3335 81.3019L44.4796 54.2618C45.0565 53.2319 46.543 53.2047 47.158 54.2127L53.3716 64.3977L43.6629 81.7306Z" fill="white"/>
<path d="M63.7764 81.4527L43.6629 81.7306L53.3716 64.3977L63.7764 81.4527Z" fill="white"/>
<path d="M40.002 81.7812L24.1676 82C23.6763 81.7824 23.1902 81.5423 22.7107 81.2792C13.6092 76.2866 10.3208 64.9378 15.3659 55.931C20.4109 46.9241 31.8789 43.6699 40.9804 48.6625C50.0819 53.6551 53.3703 65.0039 48.3253 74.0107C46.3556 77.5273 43.4068 80.1669 40.002 81.7812Z" fill="white"/>
<path d="M97.2831 80.9897L74.1102 42.8245C80.5854 39.813 88.3801 39.8171 95.1158 43.512C106.254 49.622 110.279 63.5109 104.105 74.5336C102.689 77.0614 100.859 79.219 98.7465 80.9694L97.2831 80.9897Z" fill="white"/>
<path d="M50.3464 56.2599C48.728 52.7799 46.0152 49.7608 42.37 47.7612C40.8996 46.9546 39.3674 46.3633 37.8105 45.9767C38.1818 44.8302 38.6713 43.7028 39.2835 42.6098C44.3286 33.6029 55.7966 30.3487 64.8981 35.3413C73.9996 40.3339 77.288 51.6827 72.243 60.6895C69.3287 65.8924 64.2712 69.1756 58.7646 70.0586L54.7612 63.4964L50.3464 56.2599Z" fill="white"/>
<path d="M95.3692 81.0161L70.439 39.9568L48.434 53.0413C49.1827 54.0531 49.822 55.1323 50.3464 56.2599L54.7612 63.4964L65.6996 81.4261L95.3692 81.0161Z" fill="white"/>
<defs>
<radialGradient id="paint0_angular_0_1" cx="0" cy="0" r="1" gradientUnits="userSpaceOnUse" gradientTransform="translate(60 60) rotate(90) scale(60)">
<stop offset="0.347655" stop-color="#FF5E5E"/>
<stop offset="1" stop-color="#5A62FF"/>
</radialGradient>
</defs>
</svg>

