<svg width="80" height="80" viewBox="0 0 80 80" fill="none" xmlns="http://www.w3.org/2000/svg">
<circle cx="40" cy="40" r="39" stroke="white" stroke-width="2"/>
<path d="M29.2244 54.8186L19.6464 54.9537C19.6569 54.8116 19.6976 54.6676 19.7732 54.5299L29.7631 36.3192C30.1436 35.6256 31.1241 35.6072 31.5298 36.2861L35.6281 43.1454L29.2244 54.8186Z" fill="white"/>
<path d="M42.4908 54.6314L29.2244 54.8186L35.6281 43.1454L42.4908 54.6314Z" fill="white"/>
<path d="M26.8098 54.8526L16.3659 55C16.0418 54.8534 15.7212 54.6917 15.405 54.5146C9.40184 51.1522 7.2329 43.5092 10.5605 37.4433C13.8881 31.3775 21.4521 29.1858 27.4552 32.5482C33.4583 35.9106 35.6272 43.5536 32.2997 49.6195C31.0005 51.9878 29.0555 53.7655 26.8098 54.8526Z" fill="white"/>
<path d="M64.591 54.3196L49.3067 28.6165C53.5776 26.5883 58.7188 26.5911 63.1615 29.0795C70.5082 33.1944 73.1626 42.5481 69.0903 49.9716C68.1564 51.674 66.9498 53.127 65.5562 54.306L64.591 54.3196Z" fill="white"/>
<path d="M33.6327 37.6648C32.5653 35.3212 30.776 33.2879 28.3717 31.9412C27.4019 31.398 26.3913 30.9998 25.3644 30.7394C25.6093 29.9673 25.9322 29.208 26.336 28.4719C29.6635 22.406 37.2276 20.2144 43.2307 23.5768C49.2338 26.9391 51.4027 34.5822 48.0751 40.6481C46.153 44.152 42.8172 46.3632 39.1852 46.9578L36.5446 42.5384L33.6327 37.6648Z" fill="white"/>
<path d="M63.3286 54.3374L46.8853 26.6852L32.3714 35.4972C32.8652 36.1786 33.2868 36.9054 33.6327 37.6648L36.5446 42.5384L43.7593 54.6135L63.3286 54.3374Z" fill="white"/>
</svg>

