<svg width="189" height="80" viewBox="0 0 189 80" fill="none" xmlns="http://www.w3.org/2000/svg">
<circle cx="40" cy="40" r="39" stroke="white" stroke-width="2"/>
<path d="M106.85 32.8182V51H103.121L95.886 40.5064H95.7706V51H91.3761V32.8182H95.158L102.314 43.294H102.464V32.8182H106.85ZM114.008 32.8182V51H109.613V32.8182H114.008ZM116.767 32.8182H122.209L126.825 44.0753H127.038L131.655 32.8182H137.097V51H132.818V39.8317H132.667L128.299 50.8846H125.565L121.197 39.7695H121.046V51H116.767V32.8182ZM139.838 51V32.8182H147.42C148.781 32.8182 149.92 33.0105 150.838 33.3952C151.761 33.7799 152.453 34.3185 152.915 35.011C153.383 35.7035 153.616 36.5054 153.616 37.4169C153.616 38.1094 153.471 38.7279 153.181 39.2724C152.891 39.811 152.492 40.2578 151.983 40.6129C151.474 40.968 150.885 41.2166 150.216 41.3587V41.5362C150.95 41.5717 151.628 41.77 152.249 42.131C152.877 42.4921 153.38 42.9951 153.758 43.6403C154.137 44.2795 154.327 45.0371 154.327 45.913C154.327 46.8896 154.078 47.7625 153.581 48.532C153.084 49.2955 152.365 49.8991 151.424 50.343C150.483 50.781 149.34 51 147.997 51H139.838ZM144.233 47.4577H146.949C147.902 47.4577 148.603 47.2772 149.053 46.9162C149.509 46.5552 149.737 46.0521 149.737 45.407C149.737 44.9394 149.627 44.5369 149.408 44.1996C149.189 43.8563 148.879 43.5929 148.476 43.4094C148.074 43.2201 147.591 43.1254 147.029 43.1254H144.233V47.4577ZM144.233 40.2933H146.665C147.144 40.2933 147.571 40.2134 147.943 40.0536C148.316 39.8938 148.606 39.663 148.813 39.3612C149.027 39.0593 149.133 38.6953 149.133 38.2692C149.133 37.6596 148.917 37.1802 148.485 36.831C148.053 36.4818 147.47 36.3072 146.736 36.3072H144.233V40.2933ZM167.439 32.8182H171.825V44.5458C171.825 45.9012 171.502 47.0819 170.857 48.0881C170.212 49.0883 169.312 49.8636 168.158 50.4141C167.004 50.9586 165.664 51.2308 164.137 51.2308C162.592 51.2308 161.242 50.9586 160.088 50.4141C158.934 49.8636 158.038 49.0883 157.398 48.0881C156.759 47.0819 156.44 45.9012 156.44 44.5458V32.8182H160.834V44.1641C160.834 44.7914 160.97 45.3507 161.242 45.842C161.521 46.3332 161.908 46.7179 162.405 46.9961C162.903 47.2743 163.48 47.4134 164.137 47.4134C164.794 47.4134 165.368 47.2743 165.859 46.9961C166.356 46.7179 166.744 46.3332 167.022 45.842C167.3 45.3507 167.439 44.7914 167.439 44.1641V32.8182ZM184.407 38.2692C184.348 37.6181 184.084 37.1121 183.617 36.7511C183.155 36.3841 182.495 36.2006 181.637 36.2006C181.069 36.2006 180.595 36.2746 180.217 36.4226C179.838 36.5705 179.554 36.7747 179.364 37.0352C179.175 37.2897 179.077 37.5826 179.071 37.9141C179.06 38.1863 179.113 38.426 179.231 38.6332C179.355 38.8403 179.533 39.0238 179.764 39.1836C180.001 39.3375 180.285 39.4736 180.616 39.592C180.948 39.7103 181.32 39.8139 181.735 39.9027L183.297 40.2578C184.197 40.4531 184.99 40.7135 185.676 41.0391C186.369 41.3646 186.949 41.7522 187.417 42.2021C187.89 42.6519 188.248 43.1697 188.491 43.7557C188.733 44.3416 188.858 44.9986 188.864 45.7266C188.858 46.8748 188.568 47.8602 187.994 48.6829C187.42 49.5056 186.594 50.1359 185.517 50.5739C184.445 51.0118 183.152 51.2308 181.637 51.2308C180.116 51.2308 178.79 51.003 177.66 50.5472C176.529 50.0915 175.65 49.399 175.023 48.4698C174.396 47.5406 174.073 46.3658 174.055 44.9453H178.263C178.299 45.5312 178.456 46.0195 178.734 46.4102C179.012 46.8008 179.394 47.0967 179.879 47.2979C180.371 47.4992 180.939 47.5998 181.584 47.5998C182.176 47.5998 182.679 47.5199 183.093 47.3601C183.513 47.2003 183.836 46.9783 184.061 46.6942C184.286 46.4102 184.401 46.0846 184.407 45.7177C184.401 45.3744 184.295 45.0814 184.087 44.8388C183.88 44.5902 183.561 44.3771 183.129 44.1996C182.702 44.0161 182.158 43.8474 181.495 43.6935L179.595 43.2496C178.021 42.8886 176.781 42.3056 175.875 41.5007C174.97 40.6899 174.52 39.5949 174.526 38.2159C174.52 37.0914 174.822 36.1059 175.431 35.2596C176.041 34.4132 176.884 33.7533 177.962 33.2798C179.039 32.8063 180.267 32.5696 181.646 32.5696C183.055 32.5696 184.277 32.8093 185.312 33.2887C186.354 33.7622 187.162 34.428 187.736 35.2862C188.31 36.1444 188.603 37.1387 188.615 38.2692H184.407Z" fill="white"/>
<path d="M29.2244 54.8186L19.6464 54.9537C19.6569 54.8116 19.6976 54.6676 19.7732 54.5299L29.7631 36.3192C30.1436 35.6256 31.1241 35.6072 31.5298 36.2861L35.6281 43.1454L29.2244 54.8186Z" fill="white"/>
<path d="M42.4908 54.6314L29.2244 54.8186L35.6281 43.1454L42.4908 54.6314Z" fill="white"/>
<path d="M26.8098 54.8526L16.3659 55C16.0418 54.8534 15.7212 54.6917 15.405 54.5146C9.40184 51.1522 7.2329 43.5092 10.5605 37.4433C13.8881 31.3775 21.4521 29.1858 27.4552 32.5482C33.4583 35.9106 35.6272 43.5536 32.2997 49.6195C31.0005 51.9878 29.0555 53.7655 26.8098 54.8526Z" fill="white"/>
<path d="M64.591 54.3196L49.3067 28.6165C53.5776 26.5883 58.7188 26.5911 63.1615 29.0795C70.5082 33.1944 73.1626 42.5481 69.0903 49.9716C68.1564 51.674 66.9498 53.127 65.5562 54.306L64.591 54.3196Z" fill="white"/>
<path d="M33.6327 37.6648C32.5653 35.3212 30.776 33.2879 28.3717 31.9412C27.4019 31.398 26.3913 30.9998 25.3644 30.7394C25.6093 29.9673 25.9322 29.208 26.336 28.4719C29.6635 22.406 37.2276 20.2144 43.2307 23.5768C49.2338 26.9391 51.4027 34.5822 48.0751 40.6481C46.153 44.152 42.8172 46.3632 39.1852 46.9578L36.5446 42.5384L33.6327 37.6648Z" fill="white"/>
<path d="M63.3286 54.3374L46.8853 26.6852L32.3714 35.4972C32.8652 36.1786 33.2868 36.9054 33.6327 37.6648L36.5446 42.5384L43.7593 54.6135L63.3286 54.3374Z" fill="white"/>
</svg>

