<svg width="181" height="96" viewBox="0 0 181 96" fill="none" xmlns="http://www.w3.org/2000/svg">
<g filter="url(#filter0_d_734_1776)">
<path d="M56.1065 95.4997L29.5352 95.8723C29.5644 95.4804 29.6772 95.0835 29.8869 94.7036L57.601 44.4862C58.6565 42.5735 61.3766 42.5229 62.5019 44.395L73.8715 63.3099L56.1065 95.4997Z" fill="white"/>
<path d="M92.91 94.9835L56.1065 95.4997L73.8715 63.3099L92.91 94.9835Z" fill="white"/>
<path d="M49.4079 95.5937L20.4344 96C19.5353 95.5959 18.646 95.1499 17.7686 94.6614C1.11479 85.3895 -4.90229 64.3131 4.32906 47.5861C13.5604 30.8591 34.5445 24.8155 51.1983 34.0875C67.852 43.3594 73.8691 64.4358 64.6378 81.1628C61.0336 87.6935 55.6379 92.5957 49.4079 95.5937Z" fill="white"/>
<path d="M154.22 94.1237L111.819 23.2455C123.667 17.6527 137.93 17.6604 150.254 24.5222C170.636 35.8694 178 61.663 166.702 82.1339C164.111 86.8283 160.764 90.8352 156.898 94.0861L154.22 94.1237Z" fill="white"/>
<path d="M68.3359 48.1969C65.3746 41.7342 60.4109 36.1272 53.7409 32.4137C51.0503 30.9157 48.2468 29.8175 45.398 29.0995C46.0774 26.9705 46.9731 24.8766 48.0933 22.8467C57.3246 6.1197 78.3087 0.0761518 94.9625 9.3481C111.616 18.62 117.633 39.6964 108.402 56.4234C103.07 66.0858 93.8153 72.1833 83.7395 73.8232L76.4141 61.6362L68.3359 48.1969Z" fill="white"/>
<path d="M150.718 94.1728L105.101 17.9197L64.8367 42.2195C66.2066 44.0986 67.3764 46.1028 68.3359 48.1969L76.4141 61.6362L96.4291 94.9342L150.718 94.1728Z" fill="white"/>
</g>
<defs>
<filter id="filter0_d_734_1776" x="0" y="0" width="181" height="96" filterUnits="userSpaceOnUse" color-interpolation-filters="sRGB">
<feFlood flood-opacity="0" result="BackgroundImageFix"/>
<feColorMatrix in="SourceAlpha" type="matrix" values="0 0 0 0 0 0 0 0 0 0 0 0 0 0 0 0 0 0 127 0" result="hardAlpha"/>
<feOffset dx="8" dy="-4"/>
<feGaussianBlur stdDeviation="0.5"/>
<feComposite in2="hardAlpha" operator="out"/>
<feColorMatrix type="matrix" values="0 0 0 0 1 0 0 0 0 0.282353 0 0 0 0 0 0 0 0 1 0"/>
<feBlend mode="normal" in2="BackgroundImageFix" result="effect1_dropShadow_734_1776"/>
<feBlend mode="normal" in="SourceGraphic" in2="effect1_dropShadow_734_1776" result="shape"/>
</filter>
</defs>
</svg>

